<svg xmlns="http://www.w3.org/2000/svg" xmlns:xlink="http://www.w3.org/1999/xlink" width="17" height="18" viewBox="0 0 17 18"><defs><filter id="b" width="128.4%" height="126.1%" x="-14.2%" y="-6.5%" filterUnits="objectBoundingBox"><feOffset dy="1" in="SourceAlpha" result="shadowOffsetOuter1"/><feGaussianBlur in="shadowOffsetOuter1" result="shadowBlurOuter1" stdDeviation=".5"/><feColorMatrix in="shadowBlurOuter1" values="0 0 0 0 0.466666667 0 0 0 0 0.466666667 0 0 0 0 0.466666667 0 0 0 1 0"/></filter><path id="a" d="M11.7279412,10.6333333 C11.170864,10.6333333 10.6567892,10.828799 10.2541299,11.1552267 L6.20408088,8.22519608 C6.23731005,8.04341299 6.25490196,7.85381127 6.25490196,7.6622549 C6.25490196,7.47069853 6.23731005,7.28305147 6.20408088,7.09931373 L10.2541299,4.16928309 C10.6567892,4.49571078 11.170864,4.69117647 11.7279412,4.69117647 C13.021924,4.69117647 14.0735294,3.63957108 14.0735294,2.34558824 C14.0735294,1.05160539 13.021924,0 11.7279412,0 C10.4339583,0 9.38235294,1.05160539 9.38235294,2.34558824 C9.38235294,2.57232843 9.41362745,2.78929534 9.47422181,2.99648897 L5.62745711,5.781875 C5.0566973,5.02542279 4.14973652,4.53480392 3.12745098,4.53480392 C1.39953431,4.53480392 0,5.93433824 0,7.6622549 C0,9.39017157 1.39953431,10.7897059 3.12745098,10.7897059 C4.14973652,10.7897059 5.0566973,10.299087 5.62745711,9.5426348 L9.47422181,12.3280208 C9.41362745,12.5352145 9.38235294,12.754136 9.38235294,12.9789216 C9.38235294,14.2729044 10.4339583,15.3245098 11.7279412,15.3245098 C13.021924,15.3245098 14.0735294,14.2729044 14.0735294,12.9789216 C14.0735294,11.6849387 13.021924,10.6333333 11.7279412,10.6333333 Z M11.7279412,1.32916667 C12.2889277,1.32916667 12.7443627,1.78460172 12.7443627,2.34558824 C12.7443627,2.90657475 12.2889277,3.3620098 11.7279412,3.3620098 C11.1669547,3.3620098 10.7115196,2.90657475 10.7115196,2.34558824 C10.7115196,1.78460172 11.1669547,1.32916667 11.7279412,1.32916667 Z M3.12745098,9.38235294 C2.1794424,9.38235294 1.40735294,8.61026348 1.40735294,7.6622549 C1.40735294,6.71424632 2.1794424,5.94215686 3.12745098,5.94215686 C4.07545956,5.94215686 4.84754902,6.71424632 4.84754902,7.6622549 C4.84754902,8.61026348 4.07545956,9.38235294 3.12745098,9.38235294 Z M11.7279412,13.9953431 C11.1669547,13.9953431 10.7115196,13.5399081 10.7115196,12.9789216 C10.7115196,12.417935 11.1669547,11.9625 11.7279412,11.9625 C12.2889277,11.9625 12.7443627,12.417935 12.7443627,12.9789216 C12.7443627,13.5399081 12.2889277,13.9953431 11.7279412,13.9953431 Z"/></defs><g fill="none" transform="translate(1)"><use xlink:href="#a" fill="#000" filter="url(#b)"/><use xlink:href="#a" fill="#565656"/></g></svg>